<svg viewBox="0 0 680 680" xmlns="http://www.w3.org/2000/svg" style="width:100%;height:auto;display:block"><defs><radialGradient id="wg-bg"><stop offset="0%" stop-color="#1a0e2e"/><stop offset="70%" stop-color="#0d0618"/><stop offset="100%" stop-color="#050408"/></radialGradient><radialGradient id="wg-center"><stop offset="0%" stop-color="rgba(212,175,55,0.06)"/><stop offset="100%" stop-color="transparent"/></radialGradient></defs><rect width="680" height="680" fill="url(#wg-bg)"/><circle cx="0" cy="0" r="0.3" fill="rgba(255,255,255,0.05)"/><circle cx="43" cy="61" r="0.7" fill="rgba(255,255,255,0.13)"/><circle cx="86" cy="122" r="1.1" fill="rgba(255,255,255,0.20)"/><circle cx="129" cy="183" r="0.3" fill="rgba(255,255,255,0.28)"/><circle cx="172" cy="244" r="0.7" fill="rgba(255,255,255,0.10)"/><circle cx="215" cy="305" r="1.1" fill="rgba(255,255,255,0.17)"/><circle cx="258" cy="366" r="0.3" fill="rgba(255,255,255,0.25)"/><circle cx="301" cy="427" r="0.7" fill="rgba(255,255,255,0.08)"/><circle cx="344" cy="488" r="1.1" fill="rgba(255,255,255,0.15)"/><circle cx="387" cy="549" r="0.3" fill="rgba(255,255,255,0.23)"/><circle cx="430" cy="610" r="0.7" fill="rgba(255,255,255,0.05)"/><circle cx="473" cy="671" r="1.1" fill="rgba(255,255,255,0.13)"/><circle cx="516" cy="52" r="0.3" fill="rgba(255,255,255,0.20)"/><circle cx="559" cy="113" r="0.7" fill="rgba(255,255,255,0.28)"/><circle cx="602" cy="174" r="1.1" fill="rgba(255,255,255,0.10)"/><circle cx="645" cy="235" r="0.3" fill="rgba(255,255,255,0.17)"/><circle cx="8" cy="296" r="0.7" fill="rgba(255,255,255,0.25)"/><circle cx="51" cy="357" r="1.1" fill="rgba(255,255,255,0.08)"/><circle cx="94" cy="418" r="0.3" fill="rgba(255,255,255,0.15)"/><circle cx="137" cy="479" r="0.7" fill="rgba(255,255,255,0.22)"/><circle cx="180" cy="540" r="1.1" fill="rgba(255,255,255,0.05)"/><circle cx="223" cy="601" r="0.3" fill="rgba(255,255,255,0.13)"/><circle cx="266" cy="662" r="0.7" fill="rgba(255,255,255,0.20)"/><circle cx="309" cy="43" r="1.1" fill="rgba(255,255,255,0.28)"/><circle cx="352" cy="104" r="0.3" fill="rgba(255,255,255,0.10)"/><circle cx="395" cy="165" r="0.7" fill="rgba(255,255,255,0.17)"/><circle cx="438" cy="226" r="1.1" fill="rgba(255,255,255,0.25)"/><circle cx="481" cy="287" r="0.3" fill="rgba(255,255,255,0.08)"/><circle cx="524" cy="348" r="0.7" fill="rgba(255,255,255,0.15)"/><circle cx="567" cy="409" r="1.1" fill="rgba(255,255,255,0.23)"/><circle cx="610" cy="470" r="0.3" fill="rgba(255,255,255,0.05)"/><circle cx="653" cy="531" r="0.7" fill="rgba(255,255,255,0.13)"/><circle cx="16" cy="592" r="1.1" fill="rgba(255,255,255,0.20)"/><circle cx="59" cy="653" r="0.3" fill="rgba(255,255,255,0.27)"/><circle cx="102" cy="34" r="0.7" fill="rgba(255,255,255,0.10)"/><circle cx="145" cy="95" r="1.1" fill="rgba(255,255,255,0.17)"/><circle cx="188" cy="156" r="0.3" fill="rgba(255,255,255,0.25)"/><circle cx="231" cy="217" r="0.7" fill="rgba(255,255,255,0.08)"/><circle cx="274" cy="278" r="1.1" fill="rgba(255,255,255,0.15)"/><circle cx="317" cy="339" r="0.3" fill="rgba(255,255,255,0.23)"/><circle cx="360" cy="400" r="0.7" fill="rgba(255,255,255,0.05)"/><circle cx="403" cy="461" r="1.1" fill="rgba(255,255,255,0.13)"/><circle cx="446" cy="522" r="0.3" fill="rgba(255,255,255,0.20)"/><circle cx="489" cy="583" r="0.7" fill="rgba(255,255,255,0.27)"/><circle cx="532" cy="644" r="1.1" fill="rgba(255,255,255,0.10)"/><circle cx="575" cy="25" r="0.3" fill="rgba(255,255,255,0.17)"/><circle cx="618" cy="86" r="0.7" fill="rgba(255,255,255,0.25)"/><circle cx="661" cy="147" r="1.1" fill="rgba(255,255,255,0.08)"/><circle cx="24" cy="208" r="0.3" fill="rgba(255,255,255,0.15)"/><circle cx="67" cy="269" r="0.7" fill="rgba(255,255,255,0.23)"/><circle cx="110" cy="330" r="1.1" fill="rgba(255,255,255,0.05)"/><circle cx="153" cy="391" r="0.3" fill="rgba(255,255,255,0.13)"/><circle cx="196" cy="452" r="0.7" fill="rgba(255,255,255,0.20)"/><circle cx="239" cy="513" r="1.1" fill="rgba(255,255,255,0.28)"/><circle cx="282" cy="574" r="0.3" fill="rgba(255,255,255,0.10)"/><circle cx="325" cy="635" r="0.7" fill="rgba(255,255,255,0.17)"/><circle cx="368" cy="16" r="1.1" fill="rgba(255,255,255,0.25)"/><circle cx="411" cy="77" r="0.3" fill="rgba(255,255,255,0.08)"/><circle cx="454" cy="138" r="0.7" fill="rgba(255,255,255,0.15)"/><circle cx="497" cy="199" r="1.1" fill="rgba(255,255,255,0.23)"/><circle cx="540" cy="260" r="0.3" fill="rgba(255,255,255,0.05)"/><circle cx="583" cy="321" r="0.7" fill="rgba(255,255,255,0.12)"/><circle cx="626" cy="382" r="1.1" fill="rgba(255,255,255,0.20)"/><circle cx="669" cy="443" r="0.3" fill="rgba(255,255,255,0.28)"/><circle cx="32" cy="504" r="0.7" fill="rgba(255,255,255,0.10)"/><circle cx="75" cy="565" r="1.1" fill="rgba(255,255,255,0.17)"/><circle cx="118" cy="626" r="0.3" fill="rgba(255,255,255,0.25)"/><circle cx="161" cy="7" r="0.7" fill="rgba(255,255,255,0.08)"/><circle cx="204" cy="68" r="1.1" fill="rgba(255,255,255,0.15)"/><circle cx="247" cy="129" r="0.3" fill="rgba(255,255,255,0.23)"/><circle cx="290" cy="190" r="0.7" fill="rgba(255,255,255,0.05)"/><circle cx="333" cy="251" r="1.1" fill="rgba(255,255,255,0.12)"/><circle cx="376" cy="312" r="0.3" fill="rgba(255,255,255,0.20)"/><circle cx="419" cy="373" r="0.7" fill="rgba(255,255,255,0.28)"/><circle cx="462" cy="434" r="1.1" fill="rgba(255,255,255,0.10)"/><circle cx="505" cy="495" r="0.3" fill="rgba(255,255,255,0.17)"/><circle cx="548" cy="556" r="0.7" fill="rgba(255,255,255,0.25)"/><circle cx="591" cy="617" r="1.1" fill="rgba(255,255,255,0.08)"/><circle cx="634" cy="678" r="0.3" fill="rgba(255,255,255,0.15)"/><circle cx="677" cy="59" r="0.7" fill="rgba(255,255,255,0.23)"/><circle cx="340.0" cy="340.0" r="330" fill="url(#wg-center)"/><circle cx="340.0" cy="340.0" r="300" fill="none" stroke="rgba(212,175,55,0.5)" stroke-width="1.5"/><circle cx="340.0" cy="340.0" r="250" fill="none" stroke="rgba(212,175,55,0.25)" stroke-width="0.5"/><circle cx="340.0" cy="340.0" r="210" fill="none" stroke="rgba(212,175,55,0.25)" stroke-width="0.5"/><circle cx="340.0" cy="340.0" r="140" fill="none" stroke="rgba(212,175,55,0.25)" stroke-width="0.3"/><line x1="424.2" y1="588.1" x2="436.4" y2="624.1" stroke="rgba(212,175,55,0.4)" stroke-width="0.8"/><text x="503.5" y="544.7" text-anchor="middle" dominant-baseline="central" fill="#d4af37" font-size="22">♈</text><text x="520.9" y="566.6" text-anchor="middle" dominant-baseline="central" fill="rgba(212,175,55,0.65)" font-size="8">Aries</text><line x1="563.3" y1="477.0" x2="595.7" y2="496.9" stroke="rgba(212,175,55,0.4)" stroke-width="0.8"/><text x="596.2" y="395.0" text-anchor="middle" dominant-baseline="central" fill="#d4af37" font-size="22">♉</text><text x="623.5" y="400.9" text-anchor="middle" dominant-baseline="central" fill="rgba(212,175,55,0.65)" font-size="8">Taurus</text><line x1="599.9" y1="306.7" x2="637.6" y2="301.9" stroke="rgba(212,175,55,0.4)" stroke-width="0.8"/><text x="581.4" y="238.2" text-anchor="middle" dominant-baseline="central" fill="#d4af37" font-size="22">♊</text><text x="607.2" y="227.3" text-anchor="middle" dominant-baseline="central" fill="rgba(212,175,55,0.65)" font-size="8">Gemini</text><line x1="545.2" y1="177.1" x2="575.0" y2="153.5" stroke="rgba(212,175,55,0.4)" stroke-width="0.8"/><text x="505.5" y="136.9" text-anchor="middle" dominant-baseline="central" fill="#d4af37" font-size="22">♋</text><text x="523.2" y="115.2" text-anchor="middle" dominant-baseline="central" fill="rgba(212,175,55,0.65)" font-size="8">Cancer</text><line x1="458.1" y1="106.1" x2="475.3" y2="72.2" stroke="rgba(212,175,55,0.4)" stroke-width="0.8"/><text x="411.1" y="87.8" text-anchor="middle" dominant-baseline="central" fill="#d4af37" font-size="22">♌</text><text x="418.7" y="60.9" text-anchor="middle" dominant-baseline="central" fill="rgba(212,175,55,0.65)" font-size="8">Leo</text><line x1="361.4" y1="78.9" x2="364.5" y2="41.0" stroke="rgba(212,175,55,0.4)" stroke-width="0.8"/><text x="307.9" y="80.0" text-anchor="middle" dominant-baseline="central" fill="#d4af37" font-size="22">♍</text><text x="304.5" y="52.2" text-anchor="middle" dominant-baseline="central" fill="rgba(212,175,55,0.65)" font-size="8">Virgo</text><line x1="255.8" y1="91.9" x2="243.6" y2="55.9" stroke="rgba(212,175,55,0.4)" stroke-width="0.8"/><text x="176.5" y="135.3" text-anchor="middle" dominant-baseline="central" fill="#d4af37" font-size="22">♎</text><text x="159.1" y="113.4" text-anchor="middle" dominant-baseline="central" fill="rgba(212,175,55,0.65)" font-size="8">Libra</text><line x1="116.7" y1="203.0" x2="84.3" y2="183.1" stroke="rgba(212,175,55,0.4)" stroke-width="0.8"/><text x="83.8" y="285.0" text-anchor="middle" dominant-baseline="central" fill="#d4af37" font-size="22">♏</text><text x="56.5" y="279.1" text-anchor="middle" dominant-baseline="central" fill="rgba(212,175,55,0.65)" font-size="8">Scorpio</text><line x1="80.1" y1="373.3" x2="42.4" y2="378.1" stroke="rgba(212,175,55,0.4)" stroke-width="0.8"/><text x="98.6" y="441.8" text-anchor="middle" dominant-baseline="central" fill="#d4af37" font-size="22">♐</text><text x="72.8" y="452.7" text-anchor="middle" dominant-baseline="central" fill="rgba(212,175,55,0.65)" font-size="8">Sagittarius</text><line x1="134.8" y1="502.9" x2="105.0" y2="526.5" stroke="rgba(212,175,55,0.4)" stroke-width="0.8"/><text x="174.5" y="543.1" text-anchor="middle" dominant-baseline="central" fill="#d4af37" font-size="22">♑</text><text x="156.8" y="564.8" text-anchor="middle" dominant-baseline="central" fill="rgba(212,175,55,0.65)" font-size="8">Capricorn</text><line x1="221.9" y1="573.9" x2="204.7" y2="607.8" stroke="rgba(212,175,55,0.4)" stroke-width="0.8"/><text x="268.9" y="592.2" text-anchor="middle" dominant-baseline="central" fill="#d4af37" font-size="22">♒</text><text x="261.3" y="619.1" text-anchor="middle" dominant-baseline="central" fill="rgba(212,175,55,0.65)" font-size="8">Aquarius</text><line x1="318.6" y1="601.1" x2="315.5" y2="639.0" stroke="rgba(212,175,55,0.4)" stroke-width="0.8"/><text x="372.1" y="600.0" text-anchor="middle" dominant-baseline="central" fill="#d4af37" font-size="22">♓</text><text x="375.5" y="627.8" text-anchor="middle" dominant-baseline="central" fill="rgba(212,175,55,0.65)" font-size="8">Pisces</text><text x="414.6" y="559.7" text-anchor="middle" dominant-baseline="central" fill="rgba(255,255,255,0.5)" font-size="11">1</text><text x="537.7" y="461.4" text-anchor="middle" dominant-baseline="central" fill="rgba(255,255,255,0.5)" font-size="11">2</text><text x="570.1" y="310.5" text-anchor="middle" dominant-baseline="central" fill="rgba(255,255,255,0.5)" font-size="11">3</text><text x="521.7" y="195.8" text-anchor="middle" dominant-baseline="central" fill="rgba(255,255,255,0.5)" font-size="11">4</text><text x="444.6" y="132.9" text-anchor="middle" dominant-baseline="central" fill="rgba(255,255,255,0.5)" font-size="11">5</text><text x="359.0" y="108.8" text-anchor="middle" dominant-baseline="central" fill="rgba(255,255,255,0.5)" font-size="11">6</text><text x="265.4" y="120.3" text-anchor="middle" dominant-baseline="central" fill="rgba(255,255,255,0.5)" font-size="11">7</text><text x="142.3" y="218.6" text-anchor="middle" dominant-baseline="central" fill="rgba(255,255,255,0.5)" font-size="11">8</text><text x="109.9" y="369.5" text-anchor="middle" dominant-baseline="central" fill="rgba(255,255,255,0.5)" font-size="11">9</text><text x="158.3" y="484.2" text-anchor="middle" dominant-baseline="central" fill="rgba(255,255,255,0.5)" font-size="11">10</text><text x="235.4" y="547.1" text-anchor="middle" dominant-baseline="central" fill="rgba(255,255,255,0.5)" font-size="11">11</text><text x="321.0" y="571.2" text-anchor="middle" dominant-baseline="central" fill="rgba(255,255,255,0.5)" font-size="11">12</text><line x1="385.0" y1="472.6" x2="436.4" y2="624.1" stroke="#ff4444" stroke-width="2"/><text x="441.6" y="639.2" text-anchor="middle" fill="#ff4444" font-size="8" font-weight="bold">ASC</text><line x1="360.6" y1="549.0" x2="130.6" y2="356.1" stroke="#f87171" stroke-width="0.8" opacity="0.4"/><line x1="360.6" y1="549.0" x2="158.6" y2="445.8" stroke="#4ade80" stroke-width="0.8" opacity="0.4"/><line x1="360.6" y1="549.0" x2="155.5" y2="239.7" stroke="#60a5fa" stroke-width="0.8" opacity="0.4"/><line x1="360.6" y1="549.0" x2="524.5" y2="440.3" stroke="#4ade80" stroke-width="0.8" opacity="0.4"/><line x1="426.2" y1="148.5" x2="231.5" y2="519.8" stroke="#f97316" stroke-width="0.8" opacity="0.4"/><line x1="426.2" y1="148.5" x2="443.0" y2="523.0" stroke="#60a5fa" stroke-width="0.8" opacity="0.4"/><line x1="426.2" y1="148.5" x2="246.4" y2="528.0" stroke="#f97316" stroke-width="0.8" opacity="0.4"/><line x1="426.2" y1="148.5" x2="130.6" y2="356.1" stroke="#60a5fa" stroke-width="0.8" opacity="0.4"/><line x1="426.2" y1="148.5" x2="219.7" y2="167.9" stroke="#4ade80" stroke-width="0.8" opacity="0.4"/><line x1="426.2" y1="148.5" x2="155.5" y2="239.7" stroke="#f87171" stroke-width="0.8" opacity="0.4"/><line x1="426.2" y1="148.5" x2="524.5" y2="440.3" stroke="#f87171" stroke-width="0.8" opacity="0.4"/><line x1="432.1" y1="528.7" x2="231.5" y2="519.8" stroke="#4ade80" stroke-width="0.8" opacity="0.4"/><line x1="432.1" y1="528.7" x2="443.0" y2="523.0" stroke="#a855f7" stroke-width="0.8" opacity="0.4"/><line x1="432.1" y1="528.7" x2="158.6" y2="445.8" stroke="#f87171" stroke-width="0.8" opacity="0.4"/><line x1="490.9" y1="486.0" x2="136.3" y2="390.9" stroke="#60a5fa" stroke-width="0.8" opacity="0.4"/><line x1="490.9" y1="486.0" x2="372.4" y2="132.5" stroke="#60a5fa" stroke-width="0.8" opacity="0.4"/><line x1="231.5" y1="519.8" x2="443.0" y2="523.0" stroke="#4ade80" stroke-width="0.8" opacity="0.4"/><line x1="231.5" y1="519.8" x2="246.4" y2="528.0" stroke="#a855f7" stroke-width="0.8" opacity="0.4"/><line x1="231.5" y1="519.8" x2="130.6" y2="356.1" stroke="#4ade80" stroke-width="0.8" opacity="0.4"/><line x1="231.5" y1="519.8" x2="219.7" y2="167.9" stroke="#60a5fa" stroke-width="0.8" opacity="0.4"/><circle cx="360.6" cy="549.0" r="14" fill="#ffd166" opacity="0.12"/><text x="360.6" y="549.0" text-anchor="middle" dominant-baseline="central" fill="#ffd166" font-size="19" font-weight="bold">☉</text><circle cx="426.2" cy="148.5" r="14" fill="#c0c0ff" opacity="0.12"/><text x="426.2" y="148.5" text-anchor="middle" dominant-baseline="central" fill="#c0c0ff" font-size="19" font-weight="bold">☽</text><circle cx="432.1" cy="528.7" r="14" fill="#b0b0b0" opacity="0.12"/><text x="432.1" y="528.7" text-anchor="middle" dominant-baseline="central" fill="#b0b0b0" font-size="19" font-weight="bold">☿</text><circle cx="490.9" cy="486.0" r="14" fill="#ff9ec4" opacity="0.12"/><text x="490.9" y="486.0" text-anchor="middle" dominant-baseline="central" fill="#ff9ec4" font-size="19" font-weight="bold">♀</text><circle cx="231.5" cy="519.8" r="14" fill="#ff3b5c" opacity="0.12"/><text x="231.5" y="519.8" text-anchor="middle" dominant-baseline="central" fill="#ff3b5c" font-size="19" font-weight="bold">♂</text><circle cx="443.0" cy="523.0" r="14" fill="#ffa500" opacity="0.12"/><text x="443.0" y="523.0" text-anchor="middle" dominant-baseline="central" fill="#ffa500" font-size="19" font-weight="bold">♃</text><circle cx="136.3" cy="390.9" r="14" fill="#d4b86a" opacity="0.12"/><text x="136.3" y="390.9" text-anchor="middle" dominant-baseline="central" fill="#d4b86a" font-size="19" font-weight="bold">♄</text><circle cx="246.4" cy="528.0" r="14" fill="#00cfff" opacity="0.12"/><text x="246.4" y="528.0" text-anchor="middle" dominant-baseline="central" fill="#00cfff" font-size="19" font-weight="bold">♅</text><circle cx="130.6" cy="356.1" r="14" fill="#4444ff" opacity="0.12"/><text x="130.6" y="356.1" text-anchor="middle" dominant-baseline="central" fill="#4444ff" font-size="19" font-weight="bold">♆</text><circle cx="219.7" cy="167.9" r="14" fill="#a020f0" opacity="0.12"/><text x="219.7" y="167.9" text-anchor="middle" dominant-baseline="central" fill="#a020f0" font-size="19" font-weight="bold">♇</text><circle cx="158.6" cy="445.8" r="14" fill="#77dd77" opacity="0.12"/><text x="158.6" y="445.8" text-anchor="middle" dominant-baseline="central" fill="#77dd77" font-size="19" font-weight="bold">⚷</text><circle cx="372.4" cy="132.5" r="14" fill="#cc44bb" opacity="0.12"/><text x="372.4" y="132.5" text-anchor="middle" dominant-baseline="central" fill="#cc44bb" font-size="19" font-weight="bold">⚸</text><circle cx="155.5" cy="239.7" r="14" fill="#ff8844" opacity="0.12"/><text x="155.5" y="239.7" text-anchor="middle" dominant-baseline="central" fill="#ff8844" font-size="19" font-weight="bold">☊</text><circle cx="524.5" cy="440.3" r="14" fill="#8844ff" opacity="0.12"/><text x="524.5" y="440.3" text-anchor="middle" dominant-baseline="central" fill="#8844ff" font-size="19" font-weight="bold">☋</text><circle cx="340.0" cy="340.0" r="40" fill="rgba(212,175,55,0.03)"/><text x="340.0" y="326.0" text-anchor="middle" fill="#d4af37" font-size="11">27 Jun 2026</text><text x="340.0" y="342.0" text-anchor="middle" fill="#d4af37" font-size="20" font-family="monospace" font-weight="bold">06:21:07</text><text x="340.0" y="360.0" text-anchor="middle" fill="#d4af37" font-size="9">NOW</text></svg>